# xmcd
#
# Track frame offsets:
#  150
#  15313
#  31691
#  42894
#  61652
#  75975
#  94138
#  108332
#  122314
#  146843
#  164096
#  183428
#  200617
#  213036
#  228454
#  251832
#  275115
#
# Disc length: 3964 seconds
#
# Revision: 0
# Processed by: cddbd v1.5.1PL2 Copyright (c) Steve Scherf et al.
# Submitted via: Collectorz.com_Music_Collector 6.9
#
DISCID=e00f7a11
DTITLE=Nina Simone - the soul
DYEAR=2001
DGENRE=General Blues - General Jazz
TTITLE0=Love Me Or Leave Me
TTITLE1=My Baby Just Cares For Me
TTITLE2=He Needs Me
TTITLE3=I Love You Porgy
TTITLE4=Don't Smoke in Bed
TTITLE5=Mood Indigo
TTITLE6=African Mailman
TTITLE7=Central Park Blues
TTITLE8=Good Bait
TTITLE9=Little Girl Blues
TTITLE10=You'll Never Walk Alone
TTITLE11=Ain't No Use
TTITLE12=Young Gifted And Black
TTITLE13=Gin House Blues
TTITLE14=Data track
TTITLE15=Data track
TTITLE16=Data track
EXTD=
EXTT0=
EXTT1=
EXTT2=
EXTT3=
EXTT4=
EXTT5=
EXTT6=
EXTT7=
EXTT8=
EXTT9=
EXTT10=
EXTT11=
EXTT12=
EXTT13=
EXTT14=
EXTT15=
EXTT16=
PLAYORDER=
